<svg width="267" height="268" viewBox="0 0 267 268" fill="none" xmlns="http://www.w3.org/2000/svg">
<g filter="url(#filter0_d_1631_504)">
<rect x="18" y="16" width="226.982" height="228" rx="15" fill="white"/>
</g>
<path d="M130.895 50C131.064 50 131.232 50.212 131.485 50.5936C131.696 50.9328 149.458 72.3442 170.975 98.1652C192.492 123.986 210.042 145.228 209.958 145.355C209.916 145.482 192.787 159.601 171.903 176.688C151.019 193.775 133.257 208.318 132.456 208.996C131.064 210.141 130.979 210.183 130.473 209.674C130.178 209.378 112.374 194.75 90.8991 177.154C69.4246 159.559 51.9159 145.058 52.0003 144.846C52.0847 144.634 69.7199 123.477 91.2788 97.7836C112.838 72.0898 130.473 50.848 130.557 50.5088C130.642 50.1696 130.768 50 130.895 50Z" fill="#00BEF2"/>
<path d="M127.984 184.532C125.537 183.641 122.583 181.097 121.36 178.723C119.841 175.798 119.968 171.219 121.655 167.572C122.963 164.859 122.963 164.774 122.119 164.138C121.655 163.799 116.044 160.661 109.716 157.227C103.387 153.793 97.8604 150.782 97.4807 150.57C96.9744 150.273 96.1306 150.57 94.6118 151.545C89.6756 154.683 84.5285 154.344 80.4783 150.57C77.5672 147.857 76.7234 145.949 76.7234 142.048C76.7234 138.275 77.4828 136.324 79.8876 133.907C83.1362 130.643 87.4817 129.54 91.6585 130.94C93.9367 131.703 93.9789 131.703 95.4134 130.6C97.101 129.328 110.644 116.905 117.183 110.673L121.697 106.348L120.347 103.507C117.605 97.7836 118.997 91.4237 123.807 87.6078C126.423 85.5303 128.363 84.8943 132.118 84.8943C140.894 84.8943 147.011 94.1372 143.72 102.405C142.834 104.695 142.834 104.737 143.678 106.136C144.395 107.366 156.588 122.163 163.043 129.71C164.182 131.024 165.448 132.084 165.87 132.084C166.292 132.084 167.726 131.66 169.076 131.152C175.363 128.65 181.986 131.448 184.602 137.723C186.29 141.751 184.813 147.178 181.227 150.443C178.696 152.733 176.839 153.453 173.464 153.453C171.101 153.453 170.216 153.199 167.726 151.842C165.87 150.825 164.436 150.316 163.845 150.485C162.832 150.74 147.264 161.467 143.805 164.265C141.695 166.003 141.527 166.639 142.624 169.226C143.678 171.77 143.552 175.755 142.37 178.257C141.063 181.013 137.814 183.769 134.987 184.617C132.118 185.422 130.389 185.422 127.984 184.532ZM128.701 137.808V113.641L127.351 111.775C126.591 110.758 125.874 109.91 125.748 109.91C125.199 109.91 97.9447 134.798 97.9447 135.307C97.9447 135.434 98.3666 136.706 98.8729 138.063C99.3792 139.462 99.7589 141.454 99.7167 142.599C99.6745 143.744 99.6745 145.016 99.6745 145.44C99.7167 146.415 108.83 152.266 122.499 160.195C126.254 162.4 127.562 162.951 128.026 162.569C128.574 162.103 128.701 157.396 128.701 137.808ZM140.261 159.177C158.318 147.772 161.693 145.482 161.904 144.634C162.031 144.126 162.199 142.133 162.242 140.14L162.368 136.579L153.171 125.597C143.299 113.853 139.67 109.867 138.826 109.867C138.531 109.867 137.054 110.715 135.536 111.733L132.751 113.598L132.878 137.723C133.004 159.347 133.173 162.993 133.975 162.993C134.059 163.036 136.928 161.297 140.261 159.177Z" fill="white" stroke="white" stroke-width="8.18631" stroke-linecap="round" stroke-linejoin="round"/>
<defs>
<filter id="filter0_d_1631_504" x="0" y="0" width="266.982" height="268" filterUnits="userSpaceOnUse" color-interpolation-filters="sRGB">
<feFlood flood-opacity="0" result="BackgroundImageFix"/>
<feColorMatrix in="SourceAlpha" type="matrix" values="0 0 0 0 0 0 0 0 0 0 0 0 0 0 0 0 0 0 127 0" result="hardAlpha"/>
<feOffset dx="2" dy="4"/>
<feGaussianBlur stdDeviation="10"/>
<feComposite in2="hardAlpha" operator="out"/>
<feColorMatrix type="matrix" values="0 0 0 0 0 0 0 0 0 0 0 0 0 0 0 0 0 0 0.2 0"/>
<feBlend mode="normal" in2="BackgroundImageFix" result="effect1_dropShadow_1631_504"/>
<feBlend mode="normal" in="SourceGraphic" in2="effect1_dropShadow_1631_504" result="shape"/>
</filter>
</defs>
</svg>
