<?xml version="1.0" standalone="no"?>
<!DOCTYPE svg PUBLIC "-//W3C//DTD SVG 20010904//EN"
 "http://www.w3.org/TR/2001/REC-SVG-20010904/DTD/svg10.dtd">
<svg version="1.0" xmlns="http://www.w3.org/2000/svg"
 width="512.000000pt" height="512.000000pt" viewBox="0 0 512.000000 512.000000"
 preserveAspectRatio="xMidYMid meet">
<metadata>
Created by potrace 1.14, written by Peter Selinger 2001-2017
</metadata>
<g transform="translate(0.000000,512.000000) scale(0.100000,-0.100000)"
fill="#000000" stroke="none">
<path d="M2390 4903 c-74 -36 -191 -93 -260 -126 -69 -32 -195 -93 -280 -134
-85 -41 -175 -84 -200 -95 -25 -11 -58 -27 -75 -36 -16 -8 -37 -19 -45 -23 -8
-5 -58 -28 -110 -52 -107 -50 -252 -119 -450 -214 -127 -62 -237 -114 -425
-203 -44 -21 -135 -65 -202 -98 l-122 -59 77 -36 c42 -20 158 -75 257 -122
179 -86 292 -141 475 -227 52 -25 154 -74 225 -108 72 -34 182 -87 245 -117
63 -31 171 -82 240 -115 130 -63 265 -127 435 -208 55 -26 162 -77 238 -114
75 -36 142 -66 146 -66 9 0 86 36 341 157 69 33 229 110 355 170 127 61 273
131 325 156 52 25 163 77 245 117 83 40 191 91 240 115 50 23 149 71 220 105
72 34 185 89 253 121 68 32 177 84 243 116 l120 57 -98 47 c-54 25 -204 97
-333 159 -237 114 -297 142 -695 332 -121 58 -283 136 -360 173 -77 37 -176
84 -220 105 -44 21 -143 68 -220 105 -349 168 -388 185 -418 184 -18 0 -93
-30 -167 -66z"/>
<path d="M130 3492 c0 -103 -1 -617 0 -1142 0 -1090 -10 -981 96 -1036 32 -17
112 -58 176 -92 127 -67 266 -139 473 -247 72 -37 175 -91 230 -120 55 -29
159 -83 230 -120 72 -37 175 -91 230 -120 55 -29 163 -85 240 -125 77 -40 167
-87 200 -105 33 -18 149 -78 257 -134 l197 -102 0 1211 0 1211 -62 28 c-34 16
-134 63 -222 106 -88 42 -191 92 -230 110 -38 18 -155 74 -259 124 -104 50
-190 91 -192 91 -1 0 -83 39 -181 86 -98 47 -216 104 -263 126 -47 22 -143 69
-215 103 -71 34 -168 81 -215 103 -47 22 -166 79 -265 127 -99 48 -190 91
-202 96 l-23 9 0 -188z"/>
<path d="M4880 3629 c-58 -28 -132 -64 -165 -79 -33 -15 -132 -63 -220 -105
-199 -96 -346 -166 -450 -215 -44 -21 -152 -72 -240 -115 -88 -42 -191 -92
-230 -110 -38 -18 -128 -61 -200 -95 -274 -131 -363 -174 -465 -222 -58 -27
-137 -65 -177 -85 l-72 -36 0 -1209 -1 -1209 198 102 c108 56 233 121 277 144
81 43 230 120 463 241 70 37 172 90 227 119 55 29 168 87 250 130 83 43 173
90 200 105 28 15 133 70 235 123 102 52 237 122 300 155 63 33 130 73 148 90
l32 29 0 1147 c0 630 -1 1146 -2 1146 -2 0 -50 -23 -108 -51z"/>
</g>
</svg>
